<?xml version="1.0" encoding="UTF-8" standalone="no"?>
<!-- Created with Inkscape (http://www.inkscape.org/) -->

<svg
   width="300mm"
   height="300mm"
   viewBox="0 0 300 300"
   version="1.1"
   id="svg1"
   inkscape:version="1.4.2 (ebf0e94, 2025-05-08)"
   sodipodi:docname="logo-short.svg"
   inkscape:export-filename="apple-touch-icon.png"
   inkscape:export-xdpi="15.24"
   inkscape:export-ydpi="15.24"
   xmlns:inkscape="http://www.inkscape.org/namespaces/inkscape"
   xmlns:sodipodi="http://sodipodi.sourceforge.net/DTD/sodipodi-0.dtd"
   xmlns="http://www.w3.org/2000/svg"
   xmlns:svg="http://www.w3.org/2000/svg">
  <sodipodi:namedview
     id="namedview1"
     pagecolor="#ffffff"
     bordercolor="#000000"
     borderopacity="0.25"
     inkscape:showpageshadow="2"
     inkscape:pageopacity="0.0"
     inkscape:pagecheckerboard="0"
     inkscape:deskcolor="#d1d1d1"
     inkscape:document-units="mm"
     inkscape:zoom="0.30114094"
     inkscape:cx="-521.35057"
     inkscape:cy="131.16782"
     inkscape:window-width="1854"
     inkscape:window-height="1011"
     inkscape:window-x="66"
     inkscape:window-y="872"
     inkscape:window-maximized="1"
     inkscape:current-layer="layer1"
     showgrid="false" />
  <defs
     id="defs1" />
  <g
     inkscape:label="Layer 1"
     inkscape:groupmode="layer"
     id="layer1">
    <g
       id="g4"
       transform="matrix(3.4340654,0,0,3.9892151,-359.59342,-456.98095)"
       inkscape:export-filename="logo500.png"
       inkscape:export-xdpi="50.826855"
       inkscape:export-ydpi="50.826855">
      <text
         xml:space="preserve"
         style="font-weight:bold;font-size:27.4467px;line-height:0px;font-family:Quicksand;-inkscape-font-specification:'Quicksand Bold';text-align:start;writing-mode:lr-tb;direction:ltr;text-anchor:start;fill:#000000;fill-opacity:1;stroke:#000000;stroke-width:0.0612977;stroke-miterlimit:3.8"
         x="127.70922"
         y="170.6122"
         id="text4"
         transform="scale(0.96472996,1.0365595)"><tspan
           sodipodi:role="line"
           id="tspan4"
           style="font-style:normal;font-variant:normal;font-weight:normal;font-stretch:normal;font-family:'Alumni Sans';-inkscape-font-specification:'Alumni Sans';stroke-width:0.0612977"
           x="127.70922"
           y="170.6122">WORX</tspan></text>
      <path
         style="font-weight:bold;font-size:47.8959px;line-height:0px;font-family:'Alumni Sans';-inkscape-font-specification:'Alumni Sans Bold';stroke:#000000;stroke-width:0.0588311;stroke-miterlimit:3.8"
         d="m 119.04105,152.53726 v -24.37901 h -4.40643 v -3.92747 h 14.36877 v 3.92747 h -4.40642 v 24.37901 z m 17.83457,0.18766 c -1.59653,0 -2.96955,-0.19158 -4.11905,-0.57475 -1.11757,-0.38317 -1.96373,-1.13354 -2.53848,-2.25111 -0.57475,-1.1495 -0.86213,-2.82586 -0.86213,-5.02907 v -10.05814 c 0,-2.45865 0.62265,-4.16694 1.86794,-5.12486 1.24529,-0.98985 3.1292,-1.48477 5.65172,-1.48477 2.52251,0 4.39045,0.49492 5.60382,1.48477 1.24529,0.95792 1.86794,2.66621 1.86794,5.12486 v 10.05814 c 0,2.20321 -0.28738,3.8636 -0.86213,4.98117 -0.54282,1.11757 -1.37301,1.88391 -2.49058,2.29901 -1.11757,0.38317 -2.49059,0.57475 -4.11905,0.57475 z m 0,-3.25692 c 0.70247,0 1.21336,-0.19158 1.53267,-0.57475 0.31931,-0.4151 0.47896,-1.14951 0.47896,-2.20322 V 134.2371 c 0,-0.98985 -0.15965,-1.69232 -0.47896,-2.10742 -0.28738,-0.44703 -0.79827,-0.67054 -1.53267,-0.67054 -0.70247,0 -1.22933,0.20755 -1.58057,0.62265 -0.31931,0.41509 -0.47896,1.13353 -0.47896,2.15531 v 12.45293 c 0,1.05371 0.15965,1.78812 0.47896,2.20322 0.35124,0.38317 0.8781,0.57475 1.58057,0.57475 z m 17.7693,3.25692 c -1.59653,0 -2.96955,-0.19158 -4.11905,-0.57475 -1.11757,-0.38317 -1.96373,-1.13354 -2.53848,-2.25111 -0.57475,-1.1495 -0.86213,-2.82586 -0.86213,-5.02907 v -10.05814 c 0,-2.45865 0.62265,-4.16694 1.86794,-5.12486 1.24529,-0.98985 3.1292,-1.48477 5.65172,-1.48477 2.52252,0 4.39046,0.49492 5.60382,1.48477 1.24529,0.95792 1.86794,2.66621 1.86794,5.12486 v 10.05814 c 0,2.20321 -0.28738,3.8636 -0.86213,4.98117 -0.54282,1.11757 -1.37301,1.88391 -2.49058,2.29901 -1.11757,0.38317 -2.49059,0.57475 -4.11905,0.57475 z m 0,-3.25692 c 0.70247,0 1.21336,-0.19158 1.53267,-0.57475 0.31931,-0.4151 0.47896,-1.14951 0.47896,-2.20322 V 134.2371 c 0,-0.98985 -0.15965,-1.69232 -0.47896,-2.10742 -0.28737,-0.44703 -0.79826,-0.67054 -1.53267,-0.67054 -0.70247,0 -1.22933,0.20755 -1.58056,0.62265 -0.31931,0.41509 -0.47896,1.13353 -0.47896,2.15531 v 12.45293 c 0,1.05371 0.15965,1.78812 0.47896,2.20322 0.35123,0.38317 0.87809,0.57475 1.58056,0.57475 z m 10.63281,3.16675 v -28.41347 h 5.46014 v 28.41347 z m 15.9972,0.0423 c -1.9797,0 -3.52834,-0.23948 -4.64591,-0.71844 -1.08564,-0.51089 -1.85197,-1.29319 -2.299,-2.3469 -0.4151,-1.05371 -0.62265,-2.37883 -0.62265,-3.97536 v -1.82004 h 5.46014 v 3.06534 c 0,1.02178 0.14369,1.75618 0.43106,2.20321 0.28737,0.4151 0.83019,0.62265 1.62846,0.62265 0.70247,0 1.1974,-0.19158 1.48477,-0.57475 0.31931,-0.4151 0.47896,-1.02178 0.47896,-1.82005 v -1.82004 c 0,-0.76633 -0.14369,-1.37302 -0.43106,-1.82005 -0.28737,-0.44703 -0.7344,-0.81423 -1.34109,-1.1016 -0.60668,-0.31931 -1.37301,-0.67054 -2.299,-1.05371 -0.86213,-0.35124 -1.66039,-0.75037 -2.39479,-1.1974 -0.73441,-0.44703 -1.34109,-1.03774 -1.82005,-1.77215 -0.44703,-0.7344 -0.67054,-1.67635 -0.67054,-2.82586 v -1.38898 c 0,-1.97969 0.54282,-3.48043 1.62846,-4.50221 1.08564,-1.05371 3.04937,-1.58057 5.8912,-1.58057 1.8839,0 3.35271,0.23948 4.40642,0.71844 1.05371,0.47896 1.78811,1.22933 2.20321,2.25111 0.44703,0.98985 0.67054,2.25111 0.67054,3.78378 v 1.77214 h -5.26855 v -2.68217 c 0,-1.05371 -0.15965,-1.78811 -0.47896,-2.20321 -0.28737,-0.44703 -0.7823,-0.67054 -1.48477,-0.67054 -0.79827,0 -1.34109,0.20755 -1.62846,0.62265 -0.25545,0.41509 -0.38317,0.92598 -0.38317,1.53266 v 1.77215 c 0,0.79827 0.20755,1.43688 0.62265,1.91584 0.44703,0.44703 1.02178,0.81423 1.72425,1.1016 0.70247,0.25545 1.45284,0.54282 2.25111,0.86213 0.83019,0.28737 1.59653,0.65458 2.299,1.10161 0.70247,0.41509 1.26126,0.97388 1.67636,1.67635 0.44703,0.70247 0.67054,1.64443 0.67054,2.82586 v 1.43688 c 0,1.43687 -0.23948,2.65024 -0.71844,3.64009 -0.44703,0.98985 -1.24529,1.74021 -2.39479,2.2511 -1.11757,0.47896 -2.66621,0.71844 -4.6459,0.71844 z"
         id="text2"
         transform="scale(0.97721235,1.023319)"
         aria-label="Tools&#10;"
         sodipodi:nodetypes="cccccccccsccsscscssccsscsscscsscssccsscscssccsscsscscsscscccccsccsccscscsssccscsscsscsccscscsscccccssccs" />
    </g>
  </g>
</svg>
